<svg xmlns="http://www.w3.org/2000/svg" width="26.888" height="22.737" viewBox="0 0 26.888 22.737">
  <g id="Group_2519" data-name="Group 2519" transform="translate(67 -13.213)">
    <g id="Group_2518" data-name="Group 2518" transform="translate(-67 13.213)">
      <path id="Path_5864" data-name="Path 5864" d="M125.943,49.323c.017-.023.035-.045.05-.068s.029-.047.043-.07.026-.041.038-.063.024-.049.036-.074.022-.044.031-.067.018-.048.027-.073.018-.049.026-.074.013-.05.02-.074.014-.051.019-.077.009-.058.014-.088.007-.043.009-.066a1.57,1.57,0,0,0,0-.314c0-.023-.006-.044-.009-.066s-.008-.059-.014-.088-.013-.051-.019-.077-.012-.05-.02-.074-.017-.049-.026-.074-.017-.049-.027-.073-.021-.045-.031-.067-.023-.05-.036-.074-.025-.042-.038-.063-.027-.047-.043-.07-.033-.045-.05-.068-.027-.039-.042-.057c-.034-.041-.069-.079-.105-.116l-9.779-9.779a1.591,1.591,0,0,0-2.25,2.25l7.063,7.063H100.964a1.591,1.591,0,1,0,0,3.181H120.83l-7.063,7.063a1.591,1.591,0,1,0,2.25,2.25L125.8,49.5c.037-.037.072-.076.105-.116C125.916,49.362,125.929,49.342,125.943,49.323Z" transform="translate(-99.373 -37.003)" fill="#fff"/>
    </g>
  </g>
</svg>
