<svg id="Layer_1" data-name="Layer 1" xmlns="http://www.w3.org/2000/svg" viewBox="0 0 1548.53 788.66"><defs><style>.cls-1{fill:#44b89b;}</style></defs><title>Arrow</title><path class="cls-1" d="M1490.44,61.07,1439.9,43.18c39.28-8.26,74.25-23.85,108.63-43.18-12.11,37.46-20.58,74.85-21,115l-27.48-46.08c-4.72,5.46-9.24,10.66-13.72,15.9A2384.08,2384.08,0,0,1,1322.3,258.37C1183.62,391.06,1031.06,504.7,860.82,594c-128,67.15-262,118.48-402.61,152.2q-71.83,17.22-145,27.6c-45,6.35-90.19,10.83-135.61,13.19q-59.46,3.07-118.89.36c-18.44-.87-36.87-2.36-55.21-4.64-3.19-.39-4.16-1.39-3.1-4.38A6.62,6.62,0,0,0,.8,775.9c-.28-4.94,2.31-5.65,6.55-5,19,2.66,38.09,3.81,57.21,4.72,22.31,1.07,44.64,1.45,67,1,34.3-.7,68.54-2.51,102.72-5.63A1556.12,1556.12,0,0,0,404,745.86a1614.57,1614.57,0,0,0,235.75-67.19c170.09-62.61,326.67-149.94,471.92-258,97.55-72.57,187.88-153.29,272.17-240.82q54.09-56.17,104.38-115.8C1488.91,63.19,1489.55,62.25,1490.44,61.07Z"/></svg>