<svg xmlns="http://www.w3.org/2000/svg" width="23.903" height="22.17" viewBox="0 0 23.903 22.17">
  <g id="follow_us_-_dark_blue" data-name="follow us - dark blue" transform="translate(0.001)">
    <g id="Group_364" data-name="Group 364" transform="translate(-0.001)">
      <path id="Path_255" data-name="Path 255" d="M-167.756-891.869a4.282,4.282,0,0,1,2.373-3.827.377.377,0,0,0,.244-.334,9.23,9.23,0,0,1,4.86-7.513.372.372,0,0,0,.22-.365,4.236,4.236,0,0,1,3.543-4.132,4.2,4.2,0,0,1,4.929,3.73,1.123,1.123,0,0,0,.626.986,9.236,9.236,0,0,1,4.436,6.572,1.227,1.227,0,0,1,.041.342c-.054.469.207.676.584.9a4.172,4.172,0,0,1,1.977,4.348,4.256,4.256,0,0,1-3.506,3.479,4.173,4.173,0,0,1-2.245-.248.359.359,0,0,0-.406.054,9.15,9.15,0,0,1-5.014,1.917,9.228,9.228,0,0,1-6.443-1.931.327.327,0,0,0-.359-.052,4.251,4.251,0,0,1-5.782-3.214C-167.724-891.4-167.732-891.648-167.756-891.869Zm16.425,2.8A4.177,4.177,0,0,1-152-893.62a4.3,4.3,0,0,1,3.846-2.547,7.778,7.778,0,0,0-3.8-5.8,4.2,4.2,0,0,1-3.838,2.386,4.208,4.208,0,0,1-3.853-2.385,7.771,7.771,0,0,0-3.8,5.8,4.209,4.209,0,0,1,3.849,2.554,4.185,4.185,0,0,1-.673,4.548A7.619,7.619,0,0,0-151.331-889.071Z" transform="translate(167.756 908.101)" fill="#022b46"/>
    </g>
  </g>
</svg>
