<svg id="follow_us" data-name="follow us" xmlns="http://www.w3.org/2000/svg" width="23" height="21.332" viewBox="0 0 23 21.332">
  <g id="Group_364" data-name="Group 364">
    <path id="Path_255" data-name="Path 255" d="M-167.756-892.482a4.12,4.12,0,0,1,2.284-3.683.363.363,0,0,0,.235-.321,8.881,8.881,0,0,1,4.676-7.229.358.358,0,0,0,.212-.351,4.076,4.076,0,0,1,3.409-3.976,4.046,4.046,0,0,1,4.743,3.589,1.08,1.08,0,0,0,.6.949,8.887,8.887,0,0,1,4.269,6.324,1.18,1.18,0,0,1,.039.329c-.052.451.2.651.562.866a4.015,4.015,0,0,1,1.9,4.184,4.1,4.1,0,0,1-3.373,3.347,4.016,4.016,0,0,1-2.16-.239.346.346,0,0,0-.391.053,8.805,8.805,0,0,1-4.824,1.844,8.879,8.879,0,0,1-6.2-1.858.314.314,0,0,0-.345-.051,4.09,4.09,0,0,1-5.563-3.092C-167.725-892.029-167.733-892.27-167.756-892.482Zm15.8,2.692a4.019,4.019,0,0,1-.641-4.378,4.139,4.139,0,0,1,3.7-2.451,7.484,7.484,0,0,0-3.66-5.585,4.037,4.037,0,0,1-3.693,2.3,4.049,4.049,0,0,1-3.707-2.295,7.478,7.478,0,0,0-3.655,5.583,4.05,4.05,0,0,1,3.7,2.458,4.027,4.027,0,0,1-.647,4.376A7.331,7.331,0,0,0-151.951-889.79Z" transform="translate(167.756 908.101)" fill="#fff"/>
  </g>
</svg>
