<svg xmlns="http://www.w3.org/2000/svg" width="30.987" height="30.986" viewBox="0 0 30.987 30.986">
  <g id="linked_in" data-name="linked in" transform="translate(-927.288 -9364.354)">
    <g id="linked_in-2" data-name="linked in" transform="translate(927.288 9364.355)">
      <path id="Path_232" data-name="Path 232" d="M15.493,0A15.493,15.493,0,1,1,0,15.493,15.493,15.493,0,0,1,15.493,0Z" transform="translate(0 -0.001)" fill="#022b46"/>
    </g>
    <g id="Group_2534" data-name="Group 2534" transform="translate(934.844 9369.626)">
      <path id="Path_4838" data-name="Path 4838" d="M191.728,172.84h0V166.8c0-2.952-.636-5.226-4.087-5.226a3.582,3.582,0,0,0-3.227,1.773h-.048v-1.5H181.1v10.984h3.407V167.4c0-1.432.271-2.817,2.045-2.817,1.747,0,1.773,1.634,1.773,2.909v5.348Z" transform="translate(-175.279 -156.387)" fill="#fff"/>
      <path id="Path_4839" data-name="Path 4839" d="M8.448,170.176h3.411V181.16H8.448Z" transform="translate(-8.177 -164.707)" fill="#fff"/>
      <path id="Path_4840" data-name="Path 4840" d="M1.976,0A1.985,1.985,0,1,0,3.951,1.976,1.976,1.976,0,0,0,1.976,0Z" fill="#fff"/>
    </g>
  </g>
</svg>
