<svg id="mail_dark_blue" data-name="mail dark blue" xmlns="http://www.w3.org/2000/svg" width="21.226" height="14.933" viewBox="0 0 21.226 14.933">
  <g id="Group_343" data-name="Group 343" transform="translate(14.602 1.067)">
    <g id="Group_342" data-name="Group 342">
      <path id="Path_244" data-name="Path 244" d="M358.649,101.721l-6.438,6.4,6.438,6.4a1.846,1.846,0,0,0,.187-.8v-11.2A1.846,1.846,0,0,0,358.649,101.721Z" transform="translate(-352.211 -101.721)" fill="#022b46"/>
    </g>
  </g>
  <g id="Group_345" data-name="Group 345" transform="translate(1.066 0)">
    <g id="Group_344" data-name="Group 344">
      <path id="Path_245" data-name="Path 245" d="M44.016,76H26.52a1.843,1.843,0,0,0-.8.187l8.228,8.191a1.866,1.866,0,0,0,2.638,0l8.228-8.191A1.843,1.843,0,0,0,44.016,76Z" transform="translate(-25.721 -76)" fill="#022b46"/>
    </g>
  </g>
  <g id="Group_347" data-name="Group 347" transform="translate(0 1.067)">
    <g id="Group_346" data-name="Group 346">
      <path id="Path_246" data-name="Path 246" d="M.187,101.721a1.846,1.846,0,0,0-.187.8v11.2a1.846,1.846,0,0,0,.187.8l6.438-6.4Z" transform="translate(0 -101.721)" fill="#022b46"/>
    </g>
  </g>
  <g id="Group_349" data-name="Group 349" transform="translate(1.066 8.346)">
    <g id="Group_348" data-name="Group 348">
      <path id="Path_247" data-name="Path 247" d="M38.377,277.211l-.911.911a3.111,3.111,0,0,1-4.4,0l-.911-.911-6.438,6.4a1.844,1.844,0,0,0,.8.187h17.5a1.844,1.844,0,0,0,.8-.187Z" transform="translate(-25.721 -277.211)" fill="#022b46"/>
    </g>
  </g>
</svg>
