<svg id="mail" xmlns="http://www.w3.org/2000/svg" width="25.987" height="18.281" viewBox="0 0 25.987 18.281">
  <g id="Group_343" data-name="Group 343" transform="translate(17.876 1.306)">
    <g id="Group_342" data-name="Group 342">
      <path id="Path_244" data-name="Path 244" d="M360.092,101.721l-7.881,7.835,7.881,7.835a2.26,2.26,0,0,0,.229-.979V102.7A2.26,2.26,0,0,0,360.092,101.721Z" transform="translate(-352.211 -101.721)" fill="#fff"/>
    </g>
  </g>
  <g id="Group_345" data-name="Group 345" transform="translate(1.305 0)">
    <g id="Group_344" data-name="Group 344">
      <path id="Path_245" data-name="Path 245" d="M48.118,76H26.7a2.257,2.257,0,0,0-.979.229L35.794,86.256a2.285,2.285,0,0,0,3.23,0L49.1,76.229A2.257,2.257,0,0,0,48.118,76Z" transform="translate(-25.721 -76)" fill="#fff"/>
    </g>
  </g>
  <g id="Group_347" data-name="Group 347" transform="translate(0 1.306)">
    <g id="Group_346" data-name="Group 346">
      <path id="Path_246" data-name="Path 246" d="M.229,101.721A2.26,2.26,0,0,0,0,102.7v13.711a2.259,2.259,0,0,0,.229.979l7.881-7.835Z" transform="translate(0 -101.721)" fill="#fff"/>
    </g>
  </g>
  <g id="Group_349" data-name="Group 349" transform="translate(1.305 10.218)">
    <g id="Group_348" data-name="Group 348">
      <path id="Path_247" data-name="Path 247" d="M41.215,277.211,40.1,278.327a3.809,3.809,0,0,1-5.383,0L33.6,277.211l-7.881,7.835a2.257,2.257,0,0,0,.979.229H48.118a2.257,2.257,0,0,0,.979-.229Z" transform="translate(-25.721 -277.211)" fill="#fff"/>
    </g>
  </g>
</svg>
