<svg xmlns="http://www.w3.org/2000/svg" width="16.078" height="16.085" viewBox="0 0 16.078 16.085">
  <g id="phone_-_dark_blue" data-name="phone - dark blue" transform="translate(0)">
    <g id="_003---Call" data-name="003---Call" transform="translate(0)">
      <path id="Shape" d="M7.655,9.468A6.493,6.493,0,0,1,5.7,5.782a.552.552,0,0,1,.158-.461L7.1,4.079a.555.555,0,0,0,.078-.686L5.2.32a.554.554,0,0,0-.718-.2L1.3,1.614a.552.552,0,0,0-.3.551,15.355,15.355,0,0,0,4.672,9.286,15.336,15.336,0,0,0,9.281,4.675.551.551,0,0,0,.551-.305L17,12.645a.555.555,0,0,0-.2-.717L13.728,9.95a.554.554,0,0,0-.686.078L11.8,11.27a.551.551,0,0,1-.461.158,6.487,6.487,0,0,1-3.684-1.96Z" transform="translate(-0.997 -0.043)" fill="#022b46"/>
      <path id="Shape-2" data-name="Shape" d="M33.267,15.824a.555.555,0,0,1-.554-.555,4.164,4.164,0,0,0-4.158-4.16.555.555,0,0,1,0-1.109,5.274,5.274,0,0,1,5.267,5.269A.555.555,0,0,1,33.267,15.824Z" transform="translate(-20.515 -7.227)" fill="#022b46"/>
      <path id="Shape-3" data-name="Shape" d="M36.039,8.6a.555.555,0,0,1-.554-.555,6.94,6.94,0,0,0-6.93-6.934.555.555,0,0,1,0-1.109,8.05,8.05,0,0,1,8.039,8.043.555.555,0,0,1-.554.555Z" transform="translate(-20.515)" fill="#022b46"/>
    </g>
  </g>
</svg>
