<svg id="phone" xmlns="http://www.w3.org/2000/svg" width="21.135" height="21.144" viewBox="0 0 21.135 21.144">
  <g id="_003---Call" data-name="003---Call" transform="translate(0)">
    <path id="Shape" d="M9.749,12.427A8.535,8.535,0,0,1,7.174,7.582a.725.725,0,0,1,.208-.607L9.014,5.342a.729.729,0,0,0,.1-.9L6.518.4A.729.729,0,0,0,5.574.137L1.4,2.1a.725.725,0,0,0-.4.724A20.184,20.184,0,0,0,7.142,15.034a20.158,20.158,0,0,0,12.2,6.145.725.725,0,0,0,.724-.4L22.031,16.6a.729.729,0,0,0-.264-.943l-4.036-2.6a.728.728,0,0,0-.9.1L15.2,14.8a.724.724,0,0,1-.606.208,8.528,8.528,0,0,1-4.842-2.577Z" transform="translate(-0.997 -0.038)" fill="#fff"/>
    <path id="Shape-2" data-name="Shape" d="M34.923,17.656a.729.729,0,0,1-.729-.729,5.473,5.473,0,0,0-5.466-5.468.729.729,0,0,1,0-1.458,6.933,6.933,0,0,1,6.923,6.927A.729.729,0,0,1,34.923,17.656Z" transform="translate(-18.161 -6.354)" fill="#fff"/>
    <path id="Shape-3" data-name="Shape" d="M38.567,11.3a.729.729,0,0,1-.729-.729,9.122,9.122,0,0,0-9.109-9.114.729.729,0,0,1,0-1.458A10.581,10.581,0,0,1,39.3,10.572a.729.729,0,0,1-.729.729Z" transform="translate(-18.161)" fill="#fff"/>
  </g>
</svg>
