<svg xmlns="http://www.w3.org/2000/svg" width="69.905" height="49.997" viewBox="0 0 69.905 49.997">
  <g id="quote_outline" data-name="quote outline" transform="translate(0.997 1.017)">
    <g id="Group_418" data-name="Group 418" transform="translate(0 0)">
      <path id="Path_263" data-name="Path 263" d="M55.317,31.371a1.3,1.3,0,0,0,.049.238c.207.474.412.949.63,1.419a41.5,41.5,0,0,0,6.252,9.379,3.212,3.212,0,0,1,.261,4.051,3.276,3.276,0,0,1-3.858,1.286,41.3,41.3,0,0,1-3.9-1.433A29.483,29.483,0,0,1,38.68,30.057a35.6,35.6,0,0,1-2.444-11.333,21.123,21.123,0,0,1,.394-6.254A15.93,15.93,0,0,1,54.6.2,15.766,15.766,0,0,1,67.791,17.578a15.189,15.189,0,0,1-9.564,12.815C57.312,30.8,56.324,31.037,55.317,31.371ZM19.092,31.5c.428.895.867,1.881,1.364,2.838a41.084,41.084,0,0,0,5.508,7.934,3.281,3.281,0,0,1,.363,4.161,3.232,3.232,0,0,1-3.975,1.257,47.184,47.184,0,0,1-4.979-1.953A29.11,29.11,0,0,1,2,28.68,38.056,38.056,0,0,1,.066,18.674a19.544,19.544,0,0,1,.745-7.394A15.777,15.777,0,0,1,31.7,15.79a15.24,15.24,0,0,1-8,13.773A36.745,36.745,0,0,1,19.092,31.5Z" transform="translate(0 0)" fill="none" stroke="#fff" stroke-width="2"/>
      <path id="Path_264" data-name="Path 264" d="M19.147,31.371c1.008-.334,2-.573,2.91-.978a15.189,15.189,0,0,0,9.564-12.815A15.766,15.766,0,0,0,18.428.2,15.93,15.93,0,0,0,.458,12.47a21.123,21.123,0,0,0-.394,6.254A35.6,35.6,0,0,0,2.509,30.057,29.483,29.483,0,0,0,18.576,46.311a41.291,41.291,0,0,0,3.9,1.433,3.276,3.276,0,0,0,3.858-1.286,3.212,3.212,0,0,0-.261-4.051,41.5,41.5,0,0,1-6.252-9.379c-.218-.469-.423-.945-.63-1.419A1.3,1.3,0,0,1,19.147,31.371Z" transform="translate(36.17 0)" fill="none" stroke="#fff" stroke-width="2"/>
      <path id="Path_265" data-name="Path 265" d="M19.092,31.485a36.752,36.752,0,0,0,4.614-1.936,15.24,15.24,0,0,0,8-13.773A15.777,15.777,0,0,0,.811,11.266a19.544,19.544,0,0,0-.745,7.394A38.055,38.055,0,0,0,2,28.664,29.11,29.11,0,0,0,17.373,45.722a47.182,47.182,0,0,0,4.979,1.953,3.232,3.232,0,0,0,3.975-1.257,3.281,3.281,0,0,0-.363-4.161,41.083,41.083,0,0,1-5.508-7.934C19.96,33.366,19.52,32.379,19.092,31.485Z" transform="translate(0 0.015)" fill="none" stroke="#fff" stroke-width="2"/>
    </g>
  </g>
</svg>
