<svg id="quote_icon" data-name="quote icon" xmlns="http://www.w3.org/2000/svg" width="73.42" height="51.831" viewBox="0 0 73.42 51.831">
  <g id="Group_5185" data-name="Group 5185" transform="translate(0 0)">
    <path id="Path_8446" data-name="Path 8446" d="M16.511,149.942a1.4,1.4,0,0,0,.053.257c.224.513.446,1.027.681,1.534a44.881,44.881,0,0,0,6.761,10.142,3.474,3.474,0,0,1,.282,4.38,3.543,3.543,0,0,1-4.172,1.391,44.647,44.647,0,0,1-4.223-1.55c-8.078-3.588-14.019-9.312-17.374-17.575a38.491,38.491,0,0,1-2.643-12.255A22.841,22.841,0,0,1-3.7,129.5a17.226,17.226,0,0,1,19.432-13.265A17.048,17.048,0,0,1,30,135.027c-.755,6.561-4.3,11.184-10.342,13.857C18.669,149.322,17.6,149.581,16.511,149.942Zm-39.172.139c.463.967.938,2.034,1.475,3.069a44.427,44.427,0,0,0,5.956,8.579,3.547,3.547,0,0,1,.393,4.5,3.5,3.5,0,0,1-4.3,1.36,51.021,51.021,0,0,1-5.384-2.111,31.478,31.478,0,0,1-16.625-18.445,41.152,41.152,0,0,1-2.09-10.819,21.134,21.134,0,0,1,.805-8,17.026,17.026,0,0,1,18.937-11.969A16.948,16.948,0,0,1-9.025,133.094a16.48,16.48,0,0,1-8.646,14.894A39.733,39.733,0,0,1-22.66,150.081Z" transform="translate(43.306 -116.019)" fill="#4ab99c"/>
    <path id="Path_8447" data-name="Path 8447" d="M-22.6,149.942c1.09-.361,2.158-.62,3.147-1.058,6.038-2.674,9.587-7.3,10.342-13.857a17.048,17.048,0,0,0-14.266-18.789A17.226,17.226,0,0,0-42.81,129.5a22.841,22.841,0,0,0-.426,6.763,38.491,38.491,0,0,0,2.643,12.255c3.355,8.264,9.3,13.987,17.374,17.575A44.643,44.643,0,0,0-19,167.646a3.543,3.543,0,0,0,4.172-1.391,3.474,3.474,0,0,0-.282-4.38,44.881,44.881,0,0,1-6.761-10.142c-.236-.508-.458-1.021-.681-1.534A1.4,1.4,0,0,1-22.6,149.942Z" transform="translate(82.419 -116.019)" fill="#4ab99c"/>
    <path id="Path_8448" data-name="Path 8448" d="M169.058,150.146a39.741,39.741,0,0,0,4.99-2.094,16.48,16.48,0,0,0,8.646-14.894,17.06,17.06,0,0,0-33.4-4.876,21.134,21.134,0,0,0-.805,8,41.152,41.152,0,0,0,2.09,10.819A31.478,31.478,0,0,0,167.2,165.541a51.017,51.017,0,0,0,5.384,2.112,3.5,3.5,0,0,0,4.3-1.36,3.547,3.547,0,0,0-.393-4.5,44.425,44.425,0,0,1-5.956-8.579C170,152.18,169.521,151.113,169.058,150.146Z" transform="translate(-148.413 -116.083)" fill="#4ab99c"/>
  </g>
</svg>
