<svg xmlns="http://www.w3.org/2000/svg" width="73.42" height="51.831" viewBox="0 0 73.42 51.831">
  <g id="quote_icon" data-name="quote icon" transform="translate(73.42 51.831) rotate(180)">
    <g id="Group_5186" data-name="Group 5186" transform="translate(0 0)">
      <path id="Path_8449" data-name="Path 8449" d="M59.817,33.923a1.4,1.4,0,0,0,.053.257c.224.513.446,1.027.681,1.534a44.881,44.881,0,0,0,6.761,10.142,3.474,3.474,0,0,1,.282,4.38,3.543,3.543,0,0,1-4.172,1.391A44.65,44.65,0,0,1,59.2,50.078C51.123,46.49,45.182,40.767,41.826,32.5a38.491,38.491,0,0,1-2.643-12.255,22.841,22.841,0,0,1,.426-6.763A17.226,17.226,0,0,1,59.04.219,17.048,17.048,0,0,1,73.306,19.008c-.755,6.561-4.3,11.184-10.342,13.857C61.975,33.3,60.907,33.562,59.817,33.923Zm-39.172.139c.463.967.938,2.034,1.475,3.069a44.427,44.427,0,0,0,5.956,8.579,3.547,3.547,0,0,1,.393,4.5,3.5,3.5,0,0,1-4.3,1.36,51.023,51.023,0,0,1-5.384-2.111A31.478,31.478,0,0,1,2.161,31.013,41.152,41.152,0,0,1,.072,20.194a21.134,21.134,0,0,1,.805-8,17.06,17.06,0,0,1,33.4,4.876,16.48,16.48,0,0,1-8.646,14.894A39.734,39.734,0,0,1,20.646,34.063Z" transform="translate(0 0)" fill="#4ab99c"/>
      <path id="Path_8450" data-name="Path 8450" d="M20.7,33.923c1.09-.361,2.158-.62,3.147-1.058,6.038-2.674,9.587-7.3,10.342-13.857A17.048,17.048,0,0,0,19.927.219,17.226,17.226,0,0,0,.5,13.484,22.841,22.841,0,0,0,.07,20.248,38.491,38.491,0,0,0,2.713,32.5c3.355,8.264,9.3,13.987,17.374,17.575a44.645,44.645,0,0,0,4.223,1.549,3.543,3.543,0,0,0,4.172-1.391,3.474,3.474,0,0,0-.282-4.38,44.881,44.881,0,0,1-6.761-10.142c-.236-.508-.458-1.021-.681-1.534A1.4,1.4,0,0,1,20.7,33.923Z" transform="translate(39.113)" fill="#4ab99c"/>
      <path id="Path_8451" data-name="Path 8451" d="M20.646,34.046a39.744,39.744,0,0,0,4.99-2.094,16.48,16.48,0,0,0,8.646-14.894,17.06,17.06,0,0,0-33.4-4.876,21.134,21.134,0,0,0-.805,8A41.152,41.152,0,0,0,2.161,31,31.478,31.478,0,0,0,18.787,49.442a51.021,51.021,0,0,0,5.384,2.112,3.5,3.5,0,0,0,4.3-1.36,3.547,3.547,0,0,0-.393-4.5,44.425,44.425,0,0,1-5.956-8.579C21.584,36.08,21.109,35.013,20.646,34.046Z" transform="translate(0 0.017)" fill="#4ab99c"/>
    </g>
  </g>
</svg>
