<svg xmlns="http://www.w3.org/2000/svg" width="30.987" height="30.986" viewBox="0 0 30.987 30.986">
  <g id="twitter" transform="translate(0 0.001)">
    <path id="Path_237" data-name="Path 237" d="M15.493,0A15.493,15.493,0,1,1,0,15.493,15.493,15.493,0,0,1,15.493,0Z" transform="translate(0 -0.001)" fill="#022b46"/>
    <path id="Path_238" data-name="Path 238" d="M82.111,83.7a7.715,7.715,0,0,1-2.169.578A3.694,3.694,0,0,0,81.6,82.254a7.655,7.655,0,0,1-2.4.89,3.825,3.825,0,0,0-2.756-1.156,3.72,3.72,0,0,0-3.775,3.663,3.556,3.556,0,0,0,.1.836,10.83,10.83,0,0,1-7.781-3.829,3.559,3.559,0,0,0-.511,1.842,3.634,3.634,0,0,0,1.679,3.049,3.839,3.839,0,0,1-1.711-.459v.046a3.7,3.7,0,0,0,3.029,3.593,3.9,3.9,0,0,1-.995.129,3.807,3.807,0,0,1-.71-.066A3.766,3.766,0,0,0,69.3,93.338a7.719,7.719,0,0,1-4.69,1.569,7.942,7.942,0,0,1-.9-.051A10.927,10.927,0,0,0,69.5,96.5,10.506,10.506,0,0,0,80.24,86.075l-.011-.474A7.535,7.535,0,0,0,82.111,83.7Z" transform="translate(-56.932 -73.267)" fill="#fff"/>
  </g>
</svg>
