<svg id="youtube" xmlns="http://www.w3.org/2000/svg" width="31.449" height="31.449" viewBox="0 0 31.449 31.449">
  <ellipse id="Ellipse_282" data-name="Ellipse 282" cx="15.724" cy="15.724" rx="15.724" ry="15.724" transform="translate(0)" fill="#022b46"/>
  <path id="Path_241" data-name="Path 241" d="M138.315,101.6h-1l0-.58a.471.471,0,0,1,.471-.469h.064a.472.472,0,0,1,.472.469Zm-3.748-1.244a.427.427,0,0,0-.46.379v2.822a.47.47,0,0,0,.922,0v-2.822A.428.428,0,0,0,134.567,100.353Zm6.085-1.578v5.368a2.422,2.422,0,0,1-2.482,2.341h-10.2a2.421,2.421,0,0,1-2.482-2.341V98.775a2.422,2.422,0,0,1,2.482-2.342h10.2A2.422,2.422,0,0,1,140.652,98.775Zm-12.006,5.951V99.071h1.265v-.838l-3.372-.005v.823l1.053,0v5.671h1.055Zm3.792-4.812h-1.055v3.019a5.466,5.466,0,0,1,0,.732c-.086.234-.472.483-.622.025a6.058,6.058,0,0,1,0-.737l0-3.04H129.7l0,2.992c0,.459-.01.8,0,.956.026.274.016.595.271.777a1.273,1.273,0,0,0,1.611-.539l0,.623h.847v-4.81Zm3.374,3.458,0-2.513c0-.958-.717-1.532-1.69-.757l0-1.869-1.054,0-.005,6.449.866-.013.079-.4C135.118,105.286,135.814,104.589,135.812,103.371Zm3.3-.333-.791,0c0,.032,0,.068,0,.107v.441a.432.432,0,0,1-.432.428h-.155a.432.432,0,0,1-.432-.428V102.43h1.811v-.682a10.783,10.783,0,0,0-.054-1.28c-.129-.9-1.394-1.044-2.033-.583a1.193,1.193,0,0,0-.443.6,3.352,3.352,0,0,0-.134,1.062v1.5C136.448,105.533,139.474,105.181,139.113,103.038ZM135.057,94.9a.713.713,0,0,0,.254.321.737.737,0,0,0,.432.12.669.669,0,0,0,.4-.126.963.963,0,0,0,.3-.378l-.02.414H137.6v-5h-.925v3.891a.386.386,0,0,1-.771,0V90.253h-.966v3.372c0,.43.008.716.021.861A1.471,1.471,0,0,0,135.057,94.9Zm-3.563-2.824a4.167,4.167,0,0,1,.119-1.125,1.2,1.2,0,0,1,1.229-.895,1.462,1.462,0,0,1,.7.158,1.165,1.165,0,0,1,.451.41,1.613,1.613,0,0,1,.218.521,4.144,4.144,0,0,1,.059.819v1.265a6.9,6.9,0,0,1-.054,1.022,1.614,1.614,0,0,1-.231.607,1.1,1.1,0,0,1-.453.416,1.438,1.438,0,0,1-.638.134,1.764,1.764,0,0,1-.679-.114.932.932,0,0,1-.433-.347,1.526,1.526,0,0,1-.221-.56,5.385,5.385,0,0,1-.066-.986V92.079Zm.92,1.986a.469.469,0,1,0,.934,0V91.4a.469.469,0,1,0-.934,0Zm-3.253,1.344h1.109V91.574l1.311-3.285h-1.213l-.7,2.44-.707-2.447h-1.2l1.394,3.293Z" transform="translate(-116.817 -83.136)" fill="#fff"/>
</svg>
